<svg xmlns="http://www.w3.org/2000/svg" width="59.853" height="31.681" viewBox="0 0 59.853 31.681">
  <g id="Group_94" data-name="Group 94" transform="translate(-4.776 -21.789)">
    <path id="Path_1" data-name="Path 1" d="M17.578,44.623c0,.013,0,.027,0,.04,0,.093,0,.186-.008.276s0,.186-.007.277c-.013.54-.017,1.014.006,1.359-.394-.095-1.016-.3-1.709-.522-.888-.288-1.949-.633-2.967-.894l-.25-.062-.247-.059a11.676,11.676,0,0,0-1.409-.247l.006-.023c.023-.083.045-.165.069-.247s.047-.165.07-.247A59.267,59.267,0,0,1,16.988,30.12c.055-.09.1-.167.143-.232a27.917,27.917,0,0,0,3.583,1.039c-.031.146-.08.349-.143.594-.069.266-.154.582-.251.935s-.2.722-.314,1.121c-.118.419-.244.86-.37,1.306a64.149,64.149,0,0,0-2.026,8.091C17.609,43.512,17.594,44.077,17.578,44.623Zm3.8,1.906-.006.012a2.068,2.068,0,0,1-.89.227,1.419,1.419,0,0,1-.57-.117c-.907-.394-.724-1.758-.707-1.871,0-.01.008-.031.017-.06a3.588,3.588,0,0,1,.548-.045,1.8,1.8,0,0,1,.706.124c.2.151.58.4,1.086.714.109.087.218.174.326.263-.167.253-.345.513-.489.717Zm3.642,1.048c-.064.145-.128.3-.2.469-.029.069-.059.14-.091.215-.072.171-.151.355-.234.555a1.739,1.739,0,0,1-1.058.426h0c-.873,0-1.471-.934-1.572-1.1a2.817,2.817,0,0,1-.052-1.246,1.066,1.066,0,0,1,.037-.132c.073-.1.3-.425.52-.767.046-.071.092-.142.137-.213l.069-.108.065-.106a3.831,3.831,0,0,0,.236-.434.96.96,0,0,1,.395-.059,2.437,2.437,0,0,1,1.771.692c.33.434.4.635.157,1.331-.027.074-.056.154-.09.241s-.06.153-.094.238C25.018,47.575,25.017,47.576,25.017,47.577ZM27.324,50.1a.284.284,0,0,0-.124.088,1.478,1.478,0,0,0-.084.813h0c-.946,0-1.409-.165-1.519-.306l-.02-.025-.023-.018c-.038-.031-.935-.779-.286-2.416h0q.09-.214.167-.4l.024-.06c.027-.061.053-.119.079-.174.038-.083.076-.158.112-.227.307-.585.531-.706.829-.706a3.405,3.405,0,0,1,.816.154c.916.25.937,1.747.929,2.11,0,.023,0,.042,0,.055l-.057.206-.071.253-.031.113a1.984,1.984,0,0,0-.662.471ZM29.7,52.789a3.141,3.141,0,0,1-.517-.041,3.245,3.245,0,0,1-1.518-1.4c0-.017-.007-.043-.011-.074-.012-.1-.025-.248-.034-.4a3.323,3.323,0,0,1-.006-.354,1.463,1.463,0,0,0,.139-.127,1.671,1.671,0,0,1,.43-.335.634.634,0,0,1,.271-.067h.01a.585.585,0,0,1,.145.021,2.893,2.893,0,0,0,.516.091l.138.012c.331.027.482.039.683.315.131.181.367.463.629.766.37.426.791.894,1.049,1.177A5.4,5.4,0,0,1,29.7,52.789Zm17.478-6.716c-.368.477-.864.892-1.066.892h0a14.694,14.694,0,0,1-1.893-1.212q-.115-.09-.223-.181c-.074-.062-.144-.125-.209-.186a2.451,2.451,0,0,1-.334-.377c-.021-.031-.045-.062-.071-.095a12.316,12.316,0,0,0-3.2-2.109c-.187-.1-.377-.2-.567-.3s-.4-.207-.483-.255a.4.4,0,0,0-.2-.092l-.216-.029-.251.355.1.194a.405.405,0,0,0,.171.172c.5.4,2.542,2.27,3.485,3.229.068.069.13.133.186.192.071.075.131.141.178.2a.981.981,0,0,1,.109.146c.013.037.03.08.049.129a2.084,2.084,0,0,1-.341,2.519c-.682.635-1.085.883-1.437.883A1.287,1.287,0,0,1,40.423,50c-.067-.03-.139-.067-.223-.11a30.081,30.081,0,0,1-3.71-3.434.371.371,0,0,0-.509-.011.36.36,0,0,0-.011.509,34.606,34.606,0,0,0,3.791,3.513c.02.769-.3,1.126-1,1.6a1.177,1.177,0,0,1-.686.244,2.9,2.9,0,0,1-1.5-.666l-.083-.093,0,0a11.073,11.073,0,0,0-4.035-2.559.356.356,0,0,0-.115-.019.36.36,0,0,0-.116.7,10.41,10.41,0,0,1,3.627,2.246,1.929,1.929,0,0,1-1.49,1.175.7.7,0,0,1-.178.022c-.753,0-1.877-1.026-2.781-1.851q-.241-.22-.472-.428c-.245-.283-.461-.542-.58-.706a1.216,1.216,0,0,0-1.053-.523h-.01q-.287-.186-.614-.391l.041-.147v-.026c.006-.095.14-2.319-1.3-2.711a3.749,3.749,0,0,0-.948-.172,1.123,1.123,0,0,0-.651.189,1.659,1.659,0,0,0-.4-.895,2.9,2.9,0,0,0-2.174-.892c-.47,0-.767.123-.856.356a2.887,2.887,0,0,1-.207.381l-.322-.2c-.52-.322-.911-.575-1.093-.718l-.034-.027-.04-.018a1.959,1.959,0,0,0-.528-.148,2.822,2.822,0,0,0-.4-.028c-.057,0-.113,0-.171,0l-.132.008c-.1.008-.206.021-.309.036s-.206.034-.307.055a7.222,7.222,0,0,0-.762.206c.014-.5.027-1.012.027-1.505a69.241,69.241,0,0,1,2.008-7.952c.41-1.443.726-2.559.919-3.3l.027-.043c.276.05.771.144,1.237.253a2.33,2.33,0,0,0,.522.046,13.438,13.438,0,0,0,1.562-.132,22.611,22.611,0,0,1-1.756,1.525l-.214.172c-.153.124-.26.2-.339.254-.271.189-.309.27-.291.619l0,.1.015.039a1.779,1.779,0,0,0,1.725,1.3,5.006,5.006,0,0,0,1.527-.335c.206-.069.4-.134.572-.175a7.083,7.083,0,0,0,2.435-1.326l.165-.122a.992.992,0,0,0,.556-.307,1.3,1.3,0,0,1,.176-.139,7.325,7.325,0,0,0,1.443-.531c.424-.175.862-.356,1.166-.467a1.915,1.915,0,0,1,.321-.088,7.5,7.5,0,0,1,1.406.707c.673.438,1.536.979,2.536,1.606a87.84,87.84,0,0,1,9.462,6.472c.47.48.825.832,1.114,1.119.925.918.925.918,1.2,1.693l.018.052A3.184,3.184,0,0,1,47.177,46.073Zm-3.891-.47c-.2.086-.4.175-.589.259-.666-.707-1.891-1.836-2.745-2.6A11.876,11.876,0,0,1,43.034,45.3,2.659,2.659,0,0,0,43.287,45.6Zm7.028-5.162-.205.15a13.031,13.031,0,0,0-1.322,1.068,3.635,3.635,0,0,1-1.16.841c-.388-.41-1.686-1.77-2.253-2.226-.651-.524-6.808-4.708-7.07-4.886l-5.64-3.37a.87.87,0,0,0-.567-.171c-.042,0-.085,0-.129.006a2.184,2.184,0,0,0-.48.1l-.084.029c-.094.034-.2.074-.312.118-.267.1-.575.232-.876.356-.482.2-1.139.471-1.278.493a.81.81,0,0,0-.481.263,1.023,1.023,0,0,1-.25.183l-.109-.022-.09.066-.241.178a6.689,6.689,0,0,1-2.253,1.241c-.19.046-.395.115-.612.187a4.627,4.627,0,0,1-1.368.309,1.251,1.251,0,0,1-1.238-.945v-.021c0-.045,0-.092,0-.121l.08-.057c.081-.056.2-.141.37-.277l.211-.17a19,19,0,0,0,2.237-2.026q.127-.143.243-.287c.075-.094.146-.188.211-.281.054-.077.1-.153.15-.229a2.9,2.9,0,0,1,2.1-1.768c.479-.144,1.4-.478,2.372-.832a33.326,33.326,0,0,1,3.712-1.232c.108.023.41.1.789.207a29.047,29.047,0,0,0,4.262.949,22.7,22.7,0,0,1,3.564.827c.633.179,1,.281,1.154.3a2.839,2.839,0,0,0,.384.02,13.348,13.348,0,0,0,1.477-.1c.09-.012.174-.024.252-.038a1.64,1.64,0,0,0,.358-.092l.088-.041c.076-.036.179-.085.293-.134a66.128,66.128,0,0,1,5.4,9.876l.1.239.028.071C51.609,39.53,50.938,39.99,50.315,40.441Zm4.933,2.426a.758.758,0,0,0-.365.1c-.029.014-.057.028-.088.04a.751.751,0,0,1-.253.05l-.076,0c-.061,0-.129,0-.2-.011s-.149-.016-.232-.029-.179-.03-.278-.05c-.069-.014-.141-.029-.216-.047,0-.03,0-.061,0-.092a11.663,11.663,0,0,0-.806-3.439c-.029-.081-.06-.162-.091-.244-.007-.02-.015-.038-.022-.058-.023-.061-.047-.123-.071-.183-.008-.019-.015-.038-.022-.057-.032-.079-.063-.159-.1-.239a64.723,64.723,0,0,0-5.347-9.78c-.056-.085-.095-.142-.111-.166l-.025-.037-.02-.015-.016-.012a.79.79,0,0,0-.091-.057l.553-.265.178-.085.7-.216a1.409,1.409,0,0,1,.568-.136.732.732,0,0,1,.421.12l.04.027c1.292.872,4.867,3.828,7.31,11.033l.082.245c.027.08.052.161.079.242q.376,1.164.709,2.472A16.078,16.078,0,0,1,55.248,42.867Z" fill="none"/>
    <path id="Path_2" data-name="Path 2" d="M39.953,43.259c.853.766,2.08,1.9,2.745,2.6.188-.084.39-.173.589-.259a2.588,2.588,0,0,1-.253-.307A11.889,11.889,0,0,0,39.953,43.259Z" fill="none" stroke="#efc750" stroke-width="0.7"/>
    <path id="Path_3" data-name="Path 3" d="M21.56,45.512c-.505-.313-.89-.563-1.086-.714a1.783,1.783,0,0,0-.706-.124,3.687,3.687,0,0,0-.548.045c-.009.029-.015.05-.017.06-.017.113-.2,1.477.707,1.871a1.419,1.419,0,0,0,.57.117,2.071,2.071,0,0,0,.89-.227.065.065,0,0,1,.006-.012l.022-.037c.143-.2.322-.464.489-.717C21.778,45.686,21.669,45.6,21.56,45.512Z" fill="#efc74f"/>
    <path id="Path_4" data-name="Path 4" d="M20.007,33.577c.113-.4.218-.777.314-1.121s.183-.669.251-.935c.064-.245.113-.447.144-.594a27.917,27.917,0,0,1-3.583-1.039c-.041.066-.089.143-.143.232a59.207,59.207,0,0,0-5.857,14.153c-.023.082-.047.164-.07.247s-.046.164-.069.247l-.006.023a11.815,11.815,0,0,1,1.409.247l.247.059.25.062c1.019.261,2.08.605,2.967.894.693.225,1.315.427,1.709.522-.024-.346-.019-.82-.006-1.359,0-.09,0-.183.007-.277s0-.183.008-.276c0-.013,0-.027,0-.04.015-.547.031-1.112.031-1.65a64.149,64.149,0,0,1,2.027-8.091Z" fill="none" stroke="#efc750" stroke-width="0.7"/>
    <path id="Path_5" data-name="Path 5" d="M10.333,45.266l.069-.254c.023-.084.045-.169.069-.252l.013-.046c.023-.083.045-.165.069-.247l.069-.247a59.868,59.868,0,0,1,5.935-14.362l.094-.154.009-.015q-.738-.336-1.441-.651l-.231-.1q-5.054-2.258-8.276-3.417a29.82,29.82,0,0,0,2.3,24.31,1.514,1.514,0,0,0,.4-.75Q9.843,47.076,10.333,45.266Z" fill="none" stroke="#efc750" stroke-width="0.7"/>
    <path id="Path_6" data-name="Path 6" d="M25.2,47.1c.246-.7.173-.9-.157-1.331a2.44,2.44,0,0,0-1.771-.692.96.96,0,0,0-.395.059,3.892,3.892,0,0,1-.236.434l-.065.106-.069.109c-.045.071-.091.142-.137.213-.223.342-.447.662-.52.767a1.028,1.028,0,0,0-.037.132,2.817,2.817,0,0,0,.052,1.246c.1.17.7,1.1,1.572,1.1h0a1.738,1.738,0,0,0,1.058-.426q.126-.3.234-.555l.091-.215q.1-.252.2-.469h0c.034-.085.066-.164.094-.238S25.176,47.171,25.2,47.1Z" fill="#efc74f"/>
    <path id="Path_7" data-name="Path 7" d="M28.091,49.449l.071-.253.057-.206c0-.013,0-.032,0-.055.008-.363-.013-1.86-.929-2.11a3.4,3.4,0,0,0-.816-.154c-.3,0-.522.121-.829.706-.036.069-.073.145-.112.228-.026.055-.052.113-.079.174l-.024.059q-.077.187-.167.4h0c-.65,1.637.247,2.386.286,2.416l.023.018.02.025c.11.141.573.306,1.519.306h0a1.477,1.477,0,0,1,.084-.813.284.284,0,0,1,.124-.088c.02-.017.049-.046.073-.071a1.984,1.984,0,0,1,.661-.471Z" fill="#efc74f"/>
    <path id="Path_8" data-name="Path 8" d="M29.945,50.432c-.2-.277-.352-.289-.683-.315l-.138-.012a2.893,2.893,0,0,1-.516-.091.58.58,0,0,0-.145-.021h-.01a.622.622,0,0,0-.271.067,1.689,1.689,0,0,0-.43.335,1.562,1.562,0,0,1-.139.127,3.322,3.322,0,0,0,.006.354c.008.148.022.3.034.4,0,.031.008.057.011.074a3.241,3.241,0,0,0,1.518,1.4,3.219,3.219,0,0,0,.517.041,5.391,5.391,0,0,0,1.924-.414c-.258-.283-.68-.75-1.049-1.177C30.312,50.895,30.076,50.613,29.945,50.432Z" fill="#efc74f"/>
    <path id="Path_9" data-name="Path 9" d="M56.668,39.264l-.082-.245c-2.443-7.2-6.017-10.161-7.31-11.033l-.04-.027a.732.732,0,0,0-.421-.12,1.409,1.409,0,0,0-.568.136l-.7.216-.178.085-.553.265a.826.826,0,0,1,.091.057l.016.012.02.015.025.037.111.166a64.594,64.594,0,0,1,5.347,9.78l.1.239c.008.019.015.038.022.057l.071.183.022.058c.031.081.061.162.091.244a11.663,11.663,0,0,1,.806,3.439c0,.03,0,.062,0,.092.076.018.147.032.216.047.1.02.192.037.278.05s.161.022.232.029.141.01.2.01l.076,0A.751.751,0,0,0,54.8,43c.031-.013.059-.026.088-.04a.765.765,0,0,1,.365-.1,16.083,16.083,0,0,0,2.208-.888q-.331-1.309-.709-2.472C56.721,39.424,56.7,39.344,56.668,39.264Z" fill="#efc74f"/>
    <path id="Path_10" data-name="Path 10" d="M47.615,43.969c-.276-.776-.276-.776-1.2-1.693-.289-.287-.645-.64-1.114-1.119a87.839,87.839,0,0,0-9.462-6.472c-1-.626-1.864-1.168-2.536-1.606a7.56,7.56,0,0,0-1.406-.707,1.985,1.985,0,0,0-.321.088c-.305.11-.743.291-1.166.467a7.308,7.308,0,0,1-1.443.531,1.3,1.3,0,0,0-.176.139,1,1,0,0,1-.556.307l-.165.122a7.089,7.089,0,0,1-2.435,1.326c-.17.041-.365.106-.572.175a5.006,5.006,0,0,1-1.527.335,1.779,1.779,0,0,1-1.725-1.3l-.015-.039,0-.1c-.018-.349.02-.431.291-.619.079-.055.187-.13.339-.254.059-.049.132-.106.214-.172a22.481,22.481,0,0,0,1.756-1.525,13.451,13.451,0,0,1-1.562.132,2.372,2.372,0,0,1-.522-.046c-.467-.11-.962-.2-1.237-.253l-.027.043c-.193.741-.508,1.856-.919,3.3a69.429,69.429,0,0,0-2.008,7.952c0,.493-.013,1.005-.027,1.505a7.221,7.221,0,0,1,.762-.206c.1-.021.2-.04.307-.055s.207-.028.309-.036l.132-.008c.057,0,.114,0,.171,0a2.822,2.822,0,0,1,.4.028,1.966,1.966,0,0,1,.528.148l.04.018.034.027c.182.143.573.4,1.093.717l.322.2a2.975,2.975,0,0,0,.207-.381c.09-.232.386-.356.856-.356a2.9,2.9,0,0,1,2.174.892,1.662,1.662,0,0,1,.4.895,1.123,1.123,0,0,1,.651-.189,3.749,3.749,0,0,1,.948.172c1.437.392,1.3,2.617,1.3,2.711v.026l-.041.147q.327.2.614.391h.01a1.217,1.217,0,0,1,1.053.523c.118.164.335.423.58.706q.231.207.472.428c.9.825,2.028,1.851,2.781,1.851a.729.729,0,0,0,.179-.022,1.929,1.929,0,0,0,1.49-1.175,10.422,10.422,0,0,0-3.627-2.246.36.36,0,0,1,.116-.7.356.356,0,0,1,.115.019A11.073,11.073,0,0,1,36.5,51.554l0,0,.083.093a2.9,2.9,0,0,0,1.5.666,1.182,1.182,0,0,0,.686-.244c.7-.477,1.019-.834,1-1.6a34.676,34.676,0,0,1-3.791-3.513.36.36,0,0,1,.011-.509.371.371,0,0,1,.509.011,30.081,30.081,0,0,0,3.71,3.434c.083.043.156.08.223.11a1.277,1.277,0,0,0,.535.144c.352,0,.755-.247,1.437-.883a2.085,2.085,0,0,0,.341-2.519c-.019-.048-.036-.092-.049-.129a.946.946,0,0,0-.109-.146c-.047-.055-.107-.12-.178-.2-.055-.059-.118-.123-.185-.192-.943-.959-2.987-2.827-3.485-3.229a.409.409,0,0,1-.171-.172l-.1-.194.251-.355.216.029a.4.4,0,0,1,.2.092c.085.049.287.153.483.255l.567.3a12.346,12.346,0,0,1,3.2,2.109c.026.032.05.064.071.095a2.41,2.41,0,0,0,.334.377c.064.062.134.124.209.186s.145.12.223.181a14.743,14.743,0,0,0,1.893,1.212h0c.2,0,.7-.416,1.066-.893a3.212,3.212,0,0,0,.456-2.052Z" fill="none" stroke="#efc750" stroke-width="0.7"/>
    <path id="Path_11" data-name="Path 11" d="M51.988,38.884a66.061,66.061,0,0,0-5.4-9.876c-.114.05-.216.1-.293.134l-.088.041a1.64,1.64,0,0,1-.358.092c-.078.013-.162.026-.252.038a13.359,13.359,0,0,1-1.477.1,2.839,2.839,0,0,1-.384-.02c-.154-.022-.519-.125-1.154-.3a22.782,22.782,0,0,0-3.564-.827,29.138,29.138,0,0,1-4.262-.949c-.379-.1-.68-.184-.789-.207a33.482,33.482,0,0,0-3.712,1.232c-.974.354-1.893.689-2.372.832a2.9,2.9,0,0,0-2.1,1.768c-.045.076-.1.153-.15.229-.065.093-.136.187-.211.281s-.158.192-.243.287a19,19,0,0,1-2.237,2.026l-.211.17c-.167.136-.289.221-.37.277l-.08.057c0,.029,0,.076,0,.121v.02a1.252,1.252,0,0,0,1.238.945,4.632,4.632,0,0,0,1.368-.309c.217-.072.421-.14.612-.187a6.689,6.689,0,0,0,2.253-1.241l.241-.178.09-.066.109.022a1.023,1.023,0,0,0,.25-.183.812.812,0,0,1,.481-.263c.139-.022.8-.294,1.278-.493.3-.125.609-.252.876-.356.113-.044.218-.085.312-.118l.084-.029a2.175,2.175,0,0,1,.48-.1c.044,0,.087-.006.13-.006a.868.868,0,0,1,.567.172l5.64,3.37c.262.178,6.419,4.362,7.07,4.886.568.456,1.866,1.816,2.253,2.226a3.638,3.638,0,0,0,1.16-.841,13.03,13.03,0,0,1,1.322-1.068l.205-.15c.624-.451,1.295-.911,1.8-1.248-.009-.024-.018-.048-.028-.071C52.051,39.043,52.02,38.963,51.988,38.884Z" fill="#efc74f"/>
    <path id="Path_12" data-name="Path 12" d="M61.477,21.789a5.5,5.5,0,0,0-3.245,2.079l-.046.054-.067.022c-2.177.736-4.7,1.661-6.605,2.4l-.32.124c-.95.368-1.724.68-2.187.881a1.235,1.235,0,0,1,.2.046,1.153,1.153,0,0,1,.315.15l.037.025c1.333.9,5.033,3.955,7.532,11.371.027.081.055.165.082.247s.054.162.08.244q.355,1.1.671,2.336l.063.249c.021.083.041.167.062.251.3,1.234.563,2.563.783,3.993.043.281.085.564.125.853l.024-.012c.106-.053.215-.108.328-.168,1.053-.549,2.423-1.354,3.709-2.134a29.819,29.819,0,0,0-1.541-23.01Z" fill="#efc74f"/>
  </g>
</svg>
