<svg id="Group_70" data-name="Group 70" xmlns="http://www.w3.org/2000/svg" width="58.983" height="63" viewBox="0 0 58.983 63">
  <g id="Group_58" data-name="Group 58">
    <g id="yu-0">
      <path id="Path_2" data-name="Path 2" d="M37.816,14.827A20.177,20.177,0,1,0,56.369,41.586l5.841,2.019a26.028,26.028,0,0,1-3.325,6.518l3.06,4.52-5.005,5.005-4.557-3.057A25.724,25.724,0,0,1,45.9,59.914L45.7,65.4l-7,1.1-1.88-5.156a24.978,24.978,0,0,1-3.64-.313,27.765,27.765,0,0,1-3.576-.818l-3.375,4.308-6.318-3.207,1.5-5.272a27.007,27.007,0,0,1-5.154-5.158l-5.272,1.5-3.226-6.3,4.323-3.395a25.943,25.943,0,0,1-1.146-7.2L5.792,33.6l1.1-6.983,5.487-.2a25.826,25.826,0,0,1,3.306-6.518l-3.06-4.556,5.006-5,4.557,3.074a26.467,26.467,0,0,1,6.5-3.325L28.9,4.6l6.985-1.1Z" transform="translate(-5.792 -3.5)" fill="#1e3c6e" fill-rule="evenodd"/>
      <g id="Group_53" data-name="Group 53" transform="translate(40.159 4.594)">
        <path id="Path_3" data-name="Path 3" d="M48.126,15a1.037,1.037,0,0,1-1.413.384l-.242-.139a1.038,1.038,0,0,1-.384-1.413l2.99-5.221a1.038,1.038,0,0,1,1.413-.384l.239.137a1.038,1.038,0,0,1,.384,1.413Z" transform="translate(-45.951 -8.094)" fill="#1e3c6e"/>
      </g>
      <g id="Group_54" data-name="Group 54" transform="translate(48.113 15.048)">
        <path id="Path_4" data-name="Path 4" d="M55.6,23.741a1.035,1.035,0,0,1-1.414-.372l-.137-.234a1.041,1.041,0,0,1,.375-1.417l5.19-3.03a1.041,1.041,0,0,1,1.417.371l.134.228a1.038,1.038,0,0,1-.37,1.415Z" transform="translate(-53.906 -18.548)" fill="#1e3c6e"/>
      </g>
      <g id="Group_55" data-name="Group 55" transform="translate(50.897 29.156)">
        <path id="Path_5" data-name="Path 5" d="M57.732,35.038a1.034,1.034,0,0,1-1.04-1.027l0-.271a1.041,1.041,0,0,1,1.03-1.042l6.009-.043a1.04,1.04,0,0,1,1.044,1.028l0,.267a1.037,1.037,0,0,1-1.025,1.043Z" transform="translate(-56.689 -32.656)" fill="#1e3c6e"/>
      </g>
      <g id="Group_57" data-name="Group 57" transform="translate(27.459 20.467)">
        <g id="Group_56" data-name="Group 56">
          <path id="Path_6" data-name="Path 6" d="M40.921,34.65a3.309,3.309,0,0,1-4.87,2.92l-1.674,1.671-1.126-1.123L34.87,36.5a3.3,3.3,0,0,1,2.745-5.155,3.262,3.262,0,0,1,1.948.638l8.714-8.016.431.428-8.077,8.9A3.32,3.32,0,0,1,40.921,34.65Z" transform="translate(-33.251 -23.967)" fill="#1e3c6e"/>
        </g>
      </g>
    </g>
  </g>
</svg>
