<svg xmlns="http://www.w3.org/2000/svg" width="123.208" height="131.852" viewBox="0 0 123.208 131.852">
  <path id="user-345" d="M158.615,105.538a23.822,23.822,0,0,1,.974,5.048c.2,2.05.307.41.307,2.46a38.64,38.64,0,0,1-.436,5.842,11.693,11.693,0,0,1-1.358,4.176c-.436.615-1.691,1.255-3.741,1.973s-23.444,6.816-53.525,6.816a292.683,292.683,0,0,1-54.934-5.3c-3.766-.846-6.021-1.563-6.816-2.152-.974-.717-1.691-2.844-2.152-6.406-.461-3.587-.282-4.484.589-10.07a11.294,11.294,0,0,1,3.92-7.328,24.3,24.3,0,0,1,7.4-3.92c2.844-.974,16.014-5.509,19.037-6.3A26.5,26.5,0,0,0,75.8,86.962a20.989,20.989,0,0,0,4.253-3.28,8.74,8.74,0,0,0,2.69-6.431c0-1.127-.051-2.357-.128-3.69a7.285,7.285,0,0,0-2.024-4.843c-1.179-1.127-2.485-2.306-4-3.536a7.772,7.772,0,0,1-1.845-2.562c-.538-1.1-1-2.2-1.435-3.331-.436-1.307-.871-2.665-1.307-4.048a5.661,5.661,0,0,1-1.845-.922,11.191,11.191,0,0,1-1.717-1.845,10.863,10.863,0,0,1-1.589-3.408,9.769,9.769,0,0,1-.436-4A11.3,11.3,0,0,1,67.143,42a9.2,9.2,0,0,1,1.589-2.767,62.07,62.07,0,0,1,.538-9.967,55.211,55.211,0,0,1,1.9-8.917,29.206,29.206,0,0,1,4-8.507A25.832,25.832,0,0,1,80.723,6a28.782,28.782,0,0,1,6.226-3.613A30.377,30.377,0,0,1,93.3.538,40.352,40.352,0,0,1,99.53,0a28.32,28.32,0,0,1,7.277.922,36.664,36.664,0,0,1,6.482,2.357,31.49,31.49,0,0,1,5.355,3.2,20.042,20.042,0,0,1,3.818,3.613,30.215,30.215,0,0,1,4.919,9.224,54.4,54.4,0,0,1,2.28,9.48,60.006,60.006,0,0,1,.666,10.48,3.356,3.356,0,0,1,1.435,1.589,8.628,8.628,0,0,1,.846,2.357,10.658,10.658,0,0,1,.051,3.536,14.548,14.548,0,0,1-1.23,4.381,9.12,9.12,0,0,1-1.9,2.562,6.341,6.341,0,0,1-2.485,1.435c-.333,1.384-.743,2.767-1.179,4.048-.436,1.127-.948,2.255-1.486,3.331a9.12,9.12,0,0,1-1.9,2.562,20.267,20.267,0,0,1-2.229,1.768,12.286,12.286,0,0,0-1.845,1.486,6.251,6.251,0,0,0-1.307,1.9,11.179,11.179,0,0,0-.794,2.69,15.993,15.993,0,0,0-.256,4,11.287,11.287,0,0,0,1.051,4.048,11.75,11.75,0,0,0,3.023,3.869,19.937,19.937,0,0,0,5.637,3.28,55.79,55.79,0,0,0,7.149,2.28c2.588.666,12.965,5.124,15.348,6.047a27.313,27.313,0,0,1,6.406,3.459,12.705,12.705,0,0,1,3.946,5.637ZM100.4,120.346a4.643,4.643,0,0,0,2.024-.846,19.447,19.447,0,0,0,2.69-2.024,24.228,24.228,0,0,0,2.28-2.357,3.275,3.275,0,0,0,.974-1.845,17.155,17.155,0,0,0-.384-2.767c-.256-1.307-.589-2.767-.922-4.3-.333-1.589-.717-3.126-1.051-4.663s-.666-2.767-.922-3.741a13.339,13.339,0,0,0,2.229-2.28,4.309,4.309,0,0,0,.922-2.562,3.854,3.854,0,0,0-.717-2.152,8.411,8.411,0,0,0-1.64-1.9c-.717-.615-1.435-1.23-2.229-1.845H97.121a17.07,17.07,0,0,0-2.229,1.845,9.562,9.562,0,0,0-1.435,1.845,3.971,3.971,0,0,0-.666,2.1,3.805,3.805,0,0,0,.974,2.1,14.627,14.627,0,0,0,2.408,2.485c-.256.794-.615,1.922-1.051,3.408-.436,1.46-.846,3.023-1.23,4.663-.384,1.614-.743,3.152-1.051,4.586a16.276,16.276,0,0,0-.436,3.2,3.351,3.351,0,0,0,.974,1.845,18.6,18.6,0,0,0,2.357,2.357,24.611,24.611,0,0,0,2.69,2.024,5.1,5.1,0,0,0,1.973.82Z" transform="translate(-36.688 0)" fill="#f39947"/>
</svg>
