<svg xmlns="http://www.w3.org/2000/svg" width="115" height="115" viewBox="0 0 115 115">
  <g id="Group_114" data-name="Group 114" transform="translate(-102 -128)">
    <g id="Rectangle_170" data-name="Rectangle 170" transform="translate(102 128)" fill="#909090" stroke="#000" stroke-width="1">
      <rect width="115" height="115" rx="7" stroke="none"/>
      <rect x="0.5" y="0.5" width="114" height="114" rx="6.5" fill="none"/>
    </g>
    <g id="Union_1" data-name="Union 1" transform="translate(7740 -900)" fill="#777">
      <path d="M -7580.50048828125 1101.500854492188 C -7582.15478515625 1101.500854492188 -7583.5009765625 1100.15478515625 -7583.5009765625 1098.500366210938 L -7583.5009765625 1088.999755859375 L -7583.5009765625 1088.499755859375 L -7584.0009765625 1088.499755859375 L -7593.49951171875 1088.499755859375 C -7595.15380859375 1088.499755859375 -7596.5 1087.153686523438 -7596.5 1085.499267578125 C -7596.5 1083.845825195312 -7595.15380859375 1082.500610351562 -7593.49951171875 1082.500610351562 L -7584.0009765625 1082.500610351562 L -7583.5009765625 1082.500610351562 L -7583.5009765625 1082.000610351562 L -7583.5009765625 1072.500122070312 C -7583.5009765625 1070.845703125 -7582.15478515625 1069.499633789062 -7580.50048828125 1069.499633789062 C -7578.84619140625 1069.499633789062 -7577.5 1070.845703125 -7577.5 1072.500122070312 L -7577.5 1082.000610351562 L -7577.5 1082.500610351562 L -7577 1082.500610351562 L -7567.49951171875 1082.500610351562 C -7565.84619140625 1082.500610351562 -7564.5009765625 1083.845825195312 -7564.5009765625 1085.499267578125 C -7564.5009765625 1087.153686523438 -7565.84619140625 1088.499755859375 -7567.49951171875 1088.499755859375 L -7577 1088.499755859375 L -7577.5 1088.499755859375 L -7577.5 1088.999755859375 L -7577.5 1098.500366210938 C -7577.5 1100.15478515625 -7578.84619140625 1101.500854492188 -7580.50048828125 1101.500854492188 Z" stroke="none"/>
      <path d="M -7580.50048828125 1101.000854492188 C -7579.12158203125 1101.000854492188 -7578 1099.879150390625 -7578 1098.500366210938 L -7578 1087.999755859375 L -7567.49951171875 1087.999755859375 C -7566.12158203125 1087.999755859375 -7565.0009765625 1086.878051757812 -7565.0009765625 1085.499267578125 C -7565.0009765625 1084.121459960938 -7566.12158203125 1083.000610351562 -7567.49951171875 1083.000610351562 L -7578 1083.000610351562 L -7578 1072.500122070312 C -7578 1071.121337890625 -7579.12158203125 1069.999633789062 -7580.50048828125 1069.999633789062 C -7581.87939453125 1069.999633789062 -7583.0009765625 1071.121337890625 -7583.0009765625 1072.500122070312 L -7583.0009765625 1083.000610351562 L -7593.49951171875 1083.000610351562 C -7594.87841796875 1083.000610351562 -7596 1084.121459960938 -7596 1085.499267578125 C -7596 1086.878051757812 -7594.87841796875 1087.999755859375 -7593.49951171875 1087.999755859375 L -7583.0009765625 1087.999755859375 L -7583.0009765625 1098.500366210938 C -7583.0009765625 1099.879150390625 -7581.87939453125 1101.000854492188 -7580.50048828125 1101.000854492188 M -7580.50048828125 1102.000854492188 C -7582.43359375 1102.000854492188 -7584.0009765625 1100.43359375 -7584.0009765625 1098.500366210938 L -7584.0009765625 1088.999755859375 L -7593.49951171875 1088.999755859375 C -7595.43310546875 1088.999755859375 -7597 1087.4326171875 -7597 1085.499267578125 C -7597 1083.56787109375 -7595.43310546875 1082.000610351562 -7593.49951171875 1082.000610351562 L -7584.0009765625 1082.000610351562 L -7584.0009765625 1072.500122070312 C -7584.0009765625 1070.566772460938 -7582.43359375 1068.999633789062 -7580.50048828125 1068.999633789062 C -7578.5673828125 1068.999633789062 -7577 1070.566772460938 -7577 1072.500122070312 L -7577 1082.000610351562 L -7567.49951171875 1082.000610351562 C -7565.56591796875 1082.000610351562 -7564.0009765625 1083.56787109375 -7564.0009765625 1085.499267578125 C -7564.0009765625 1087.4326171875 -7565.56591796875 1088.999755859375 -7567.49951171875 1088.999755859375 L -7577 1088.999755859375 L -7577 1098.500366210938 C -7577 1100.43359375 -7578.5673828125 1102.000854492188 -7580.50048828125 1102.000854492188 Z" stroke="none" fill="#000"/>
    </g>
  </g>
</svg>
