<svg id="fi-rr-marker" xmlns="http://www.w3.org/2000/svg" width="16.243" height="19.386" viewBox="0 0 16.243 19.386">
  <path id="Path_167" data-name="Path 167" d="M11.231,6a3.231,3.231,0,1,0,3.231,3.231A3.231,3.231,0,0,0,11.231,6Zm0,4.846a1.615,1.615,0,1,1,1.615-1.615A1.615,1.615,0,0,1,11.231,10.846Z" transform="translate(-3.109 -1.152)"/>
  <path id="Path_168" data-name="Path 168" d="M10.066,19.384a4.257,4.257,0,0,1-3.482-1.777c-3.078-4.246-4.639-7.438-4.639-9.488a8.121,8.121,0,1,1,16.243,0c0,2.05-1.561,5.242-4.639,9.488a4.257,4.257,0,0,1-3.482,1.777Zm0-17.623a6.367,6.367,0,0,0-6.36,6.36c0,1.623,1.529,4.626,4.3,8.453a2.54,2.54,0,0,0,4.111,0c2.775-3.828,4.3-6.83,4.3-8.453a6.367,6.367,0,0,0-6.36-6.36Z" transform="translate(-1.945 0.002)"/>
</svg>
