<svg xmlns="http://www.w3.org/2000/svg" width="24" height="24.007" viewBox="0 0 24 24.007">
  <g id="fi-rr-time-fast" transform="translate(0 0.007)">
    <path id="Path_269" data-name="Path 269" d="M9,24H1a1,1,0,0,1,0-2H9a1,1,0,0,1,0,2Z"/>
    <path id="Path_270" data-name="Path 270" d="M7,20H1a1,1,0,0,1,0-2H7a1,1,0,0,1,0,2Z"/>
    <path id="Path_271" data-name="Path 271" d="M5,16H1a1,1,0,0,1,0-2H5a1,1,0,0,1,0,2Z"/>
    <path id="Path_272" data-name="Path 272" d="M13,23.955a1,1,0,1,1-.089-2A10,10,0,1,0,2.041,11.09a1,1,0,0,1-1.992-.18A12,12,0,1,1,13.09,23.951C13.06,23.954,13.029,23.955,13,23.955Z"/>
    <path id="Path_273" data-name="Path 273" d="M12,6a1,1,0,0,0-1,1v5a1,1,0,0,0,.293.707l3,3a1,1,0,1,0,1.414-1.414L13,11.586V7A1,1,0,0,0,12,6Z"/>
  </g>
</svg>
